<?xml version="1.0" standalone="no"?>
<!DOCTYPE svg PUBLIC "-//W3C//DTD SVG 20010904//EN"
 "http://www.w3.org/TR/2001/REC-SVG-20010904/DTD/svg10.dtd">
<svg version="1.0" xmlns="http://www.w3.org/2000/svg"
 width="789.000000pt" height="716.000000pt" viewBox="0 0 789.000000 716.000000"
 preserveAspectRatio="xMidYMid meet">

<g transform="translate(0.000000,716.000000) scale(0.100000,-0.100000)"
fill="#000000" stroke="none">
<path d="M3940 6814 c0 -4 -7 -50 -15 -103 -35 -232 -55 -394 -51 -399 3 -3
64 -15 136 -28 628 -109 1246 -433 1713 -898 459 -457 763 -1009 897 -1629 15
-71 31 -131 34 -135 6 -5 410 57 484 75 26 6 27 -9 -14 183 -122 561 -378
1093 -751 1560 -128 160 -408 443 -548 554 -55 44 -118 94 -140 111 -81 65
-314 214 -440 283 -353 194 -749 335 -1138 407 -146 26 -167 29 -167 19z"/>
<path d="M1570 6182 c-59 -5 -153 -40 -213 -80 -53 -35 -602 -571 -672 -657
-88 -107 -145 -245 -166 -403 -15 -112 -6 -392 15 -498 104 -515 363 -1104
730 -1659 342 -517 800 -1041 1237 -1416 210 -180 458 -367 677 -512 400 -265
896 -519 1237 -635 149 -51 313 -94 470 -123 179 -33 475 -34 593 -1 106 29
214 80 288 136 33 25 192 179 355 343 231 233 303 312 332 363 93 167 87 336
-16 491 -20 30 -240 257 -489 505 -483 480 -504 498 -631 531 -117 29 -259 1
-363 -72 -27 -19 -178 -163 -335 -320 -275 -274 -287 -285 -324 -285 -74 0
-400 183 -640 359 -394 289 -811 711 -1118 1133 -120 164 -241 376 -297 519
-18 45 -19 53 -6 84 9 20 110 128 256 272 133 131 266 267 295 303 141 174
166 338 79 518 -36 73 -59 99 -488 530 -248 249 -476 470 -506 490 -93 61
-204 93 -300 84z"/>
<path d="M3870 5479 c0 -8 -20 -156 -64 -466 -3 -18 -1 -33 3 -33 29 0 222
-48 309 -77 447 -148 824 -479 1031 -908 52 -107 122 -309 141 -407 9 -43 16
-58 28 -58 19 0 194 29 361 59 63 12 119 21 124 21 21 0 -43 256 -103 415
-286 751 -930 1298 -1705 1446 -116 22 -125 23 -125 8z"/>
</g>
</svg>
