<?xml version="1.0" standalone="no"?>
<!DOCTYPE svg PUBLIC "-//W3C//DTD SVG 20010904//EN"
 "http://www.w3.org/TR/2001/REC-SVG-20010904/DTD/svg10.dtd">
<svg version="1.0" xmlns="http://www.w3.org/2000/svg"
 width="458.000000pt" height="393.000000pt" viewBox="0 0 458.000000 393.000000"
 preserveAspectRatio="xMidYMid meet">

<g transform="translate(0.000000,393.000000) scale(0.100000,-0.100000)"
fill="#000000" stroke="none">
<path d="M2349 3452 c-14 -9 -76 -60 -138 -112 l-113 -95 151 -3 c83 -1 219
-1 302 0 l151 3 -112 95 c-62 52 -124 103 -139 112 -33 23 -69 23 -102 0z"/>
<path d="M1429 3021 l-29 -29 0 -575 0 -575 81 -62 c45 -34 194 -149 330 -256
l248 -194 341 0 341 0 248 194 c136 107 285 222 330 256 l81 62 0 575 0 575
-29 29 -29 29 -942 0 -942 0 -29 -29z m1143 -210 c231 -59 413 -230 483 -454
34 -108 34 -223 0 -342 -31 -107 -46 -135 -98 -192 -102 -110 -262 -130 -358
-44 l-43 38 -59 -31 c-140 -72 -313 -13 -402 139 -40 69 -56 133 -56 224 0
168 72 292 206 355 80 37 128 39 245 11 21 -5 28 -1 39 19 27 49 92 57 142 17
l24 -19 5 -303 c5 -331 5 -330 65 -315 77 19 129 145 123 294 -2 75 -8 97 -36
154 -184 375 -719 373 -897 -4 -145 -307 49 -660 390 -708 84 -12 105 -21 123
-57 20 -37 14 -73 -17 -104 -25 -25 -37 -29 -83 -29 -82 0 -174 26 -277 77
-228 113 -371 347 -371 608 0 317 219 595 527 669 87 21 236 20 325 -3z"/>
<path d="M2325 2336 c-129 -57 -137 -300 -13 -376 63 -38 121 -18 165 58 25
41 28 57 28 132 0 126 -35 184 -116 196 -19 2 -48 -2 -64 -10z"/>
<path d="M1070 2380 c-74 -62 -143 -120 -153 -129 -17 -17 -10 -23 133 -135
83 -65 153 -116 156 -114 2 3 3 114 2 248 l-3 243 -135 -113z"/>
<path d="M3590 2246 c0 -135 3 -246 6 -246 6 0 304 231 304 235 0 3 -284 240
-297 249 -10 6 -13 -45 -13 -238z"/>
<path d="M810 1240 c0 -452 4 -820 8 -818 24 9 1049 814 1046 820 -5 8 -1018
797 -1042 812 -9 6 -12 -176 -12 -814z"/>
<path d="M3730 1863 c-140 -109 -375 -292 -522 -406 -147 -114 -269 -211 -271
-215 -5 -8 1042 -826 1049 -819 2 2 3 371 2 821 l-3 817 -255 -198z"/>
<path d="M2061 1143 c-8 -3 -181 -136 -385 -294 -204 -159 -454 -353 -554
-431 l-184 -143 731 -3 c402 -1 1060 -1 1462 0 l731 3 -559 435 -558 435 -335
2 c-184 1 -341 -1 -349 -4z"/>
</g>
</svg>
